<!--?xml version="1.0" standalone="no"?-->
              <svg id="sw-js-blob-svg" viewBox="0 0 100 100" xmlns="http://www.w3.org/2000/svg" version="1.1">
                    <defs> 
                        <linearGradient id="sw-gradient" x1="0" x2="1" y1="1" y2="0">
                            <stop id="stop1" stop-color="rgba(247.102, 95.537, 23.803, 1)" offset="0%"></stop>
                            <stop id="stop2" stop-color="rgba(255, 164.804, 15.926, 1)" offset="100%"></stop>
                        </linearGradient>
                    </defs>
                <path fill="url(#sw-gradient)" d="M21.6,-27.8C26.4,-21.7,27.6,-13.4,25.7,-7.1C23.8,-0.7,18.8,3.6,16.9,12.3C14.9,20.9,16,33.9,12.1,36.8C8.3,39.7,-0.5,32.6,-7,26.9C-13.5,21.2,-17.7,16.9,-19.1,12.1C-20.5,7.4,-19.2,2.1,-16.9,-1.6C-14.6,-5.3,-11.3,-7.5,-8.4,-13.9C-5.4,-20.3,-2.7,-31,2.9,-34.4C8.4,-37.8,16.8,-33.9,21.6,-27.8Z" width="100%" height="100%" transform="translate(50 50)" stroke-width="0" style="transition: all 0.3s ease 0s;" stroke="url(#sw-gradient)"></path>
              </svg>